<svg xmlns:dc="http://purl.org/dc/elements/1.1/" xmlns:cc="http://creativecommons.org/ns#" xmlns:rdf="http://www.w3.org/1999/02/22-rdf-syntax-ns#" xmlns:svg="http://www.w3.org/2000/svg" xmlns="http://www.w3.org/2000/svg" xmlns:sodipodi="http://sodipodi.sourceforge.net/DTD/sodipodi-0.dtd" xmlns:inkscape="http://www.inkscape.org/namespaces/inkscape" version="1.1" x="0px" y="0px" viewBox="0 0 100 125"><g transform="translate(0,-952.36218)"><path style="text-indent:0;text-transform:none;direction:ltr;block-progression:tb;baseline-shift:baseline;color:#FFFFFF;enable-background:accumulate;" d="m 50,960.36217 c -10.45792,0 -19,8.5421 -19,19 0,10.4579 8.54208,19.00002 19,19.00002 10.45792,0 19,-8.54212 19,-19.00002 0,-10.4579 -8.54208,-19 -19,-19 z m 0,6 c 7.21525,0 13,5.7847 13,13 0,7.2152 -5.78475,13 -13,13 -7.21525,0 -13,-5.7848 -13,-13 0,-7.2153 5.78475,-13 13,-13 z m 0,36.00003 c -9.90463,0 -18.8787,2.36 -25.59375,6.3438 C 17.6912,1012.6896 13,1018.5456 13,1025.3622 l 0,16 a 3.0003,3.0003 0 0 0 3,3 l 68,0 a 3.0003,3.0003 0 0 0 3,-3 l 0,-16 c 0,-6.8166 -4.6912,-12.6726 -11.40625,-16.6562 C 68.8787,1004.7222 59.90463,1002.3622 50,1002.3622 z m 0,6 c 8.93137,0 16.9553,2.1921 22.53125,5.5 5.57595,3.3079 8.46875,7.4828 8.46875,11.5 l 0,13 -62,0 0,-13 c 0,-4.0172 2.8928,-8.1921 8.46875,-11.5 5.57595,-3.3079 13.59988,-5.5 22.53125,-5.5 z" fill="#FFFFFF" fill-opacity="1" stroke="none" marker="none" visibility="visible" display="inline" overflow="visible"/></g></svg>